<svg width="900" height="560" viewBox="0 0 900 560" fill="none" xmlns="http://www.w3.org/2000/svg">
  <rect width="900" height="560" fill="#EDF2FF"/>
  <circle cx="430" cy="270" r="245" fill="#F8FAFF"/>
  <circle cx="90" cy="540" r="150" fill="#FFF7DF"/>
  <rect x="138" y="132" width="470" height="300" rx="20" fill="#141414"/>
  <rect x="160" y="152" width="426" height="256" rx="6" fill="white"/>
  <rect x="160" y="152" width="426" height="32" rx="6" fill="#F8F8FB"/>
  <circle cx="184" cy="168" r="4" fill="#D7DBEA"/>
  <rect x="272" y="162" width="150" height="12" rx="6" fill="#E4E7F2"/>
  <rect x="200" y="220" width="200" height="7" rx="3.5" fill="#2B2F38"/>
  <rect x="200" y="240" width="245" height="7" rx="3.5" fill="#2B2F38"/>
  <rect x="200" y="260" width="172" height="7" rx="3.5" fill="#2B2F38"/>
  <rect x="200" y="292" width="226" height="7" rx="3.5" fill="#677083"/>
  <rect x="200" y="312" width="190" height="7" rx="3.5" fill="#677083"/>
  <rect x="476" y="184" width="110" height="224" fill="#F5F7FF"/>
  <text x="505" y="226" fill="#222733" font-family="Arial, sans-serif" font-size="16" font-weight="700">Study</text>
  <text x="495" y="248" fill="#222733" font-family="Arial, sans-serif" font-size="16" font-weight="700">Session</text>
  <circle cx="532" cy="304" r="34" fill="#DDE6FF"/>
  <path d="M511 305c8-20 35-22 43 0" stroke="#6284FF" stroke-width="5" stroke-linecap="round"/>
  <rect x="506" y="356" width="52" height="18" rx="4" fill="#5D74EF"/>
  <rect x="662" y="150" width="150" height="132" rx="5" fill="white"/>
  <rect x="682" y="176" width="72" height="8" rx="4" fill="#DDE6FF"/>
  <circle cx="737" cy="220" r="38" stroke="#E8EAF4" stroke-width="8"/>
  <path d="M737 182a38 38 0 0 1 38 38" stroke="#6384FF" stroke-width="8" stroke-linecap="round"/>
  <text x="704" y="228" fill="#242936" font-family="Arial, sans-serif" font-size="28" font-weight="700">34:00</text>
  <rect x="707" y="250" width="60" height="18" rx="4" fill="#5D74EF"/>
  <rect x="662" y="304" width="150" height="84" rx="5" fill="white"/>
  <rect x="682" y="326" width="70" height="8" rx="4" fill="#DDE6FF"/>
  <rect x="682" y="346" width="12" height="12" rx="2" fill="#F8FAFF" stroke="#AAB2CA"/>
  <rect x="702" y="348" width="78" height="8" rx="4" fill="#D8DEF4"/>
  <rect x="682" y="368" width="12" height="12" rx="2" fill="#F8FAFF" stroke="#AAB2CA"/>
  <rect x="702" y="370" width="92" height="8" rx="4" fill="#D8DEF4"/>
</svg>
