<svg width="1600" height="760" viewBox="0 0 1600 760" fill="none" xmlns="http://www.w3.org/2000/svg">
  <rect width="1600" height="760" fill="#EFF3FF"/>
  <circle cx="770" cy="360" r="350" fill="#FAFBFF"/>
  <circle cx="165" cy="760" r="265" fill="#FFF7DD"/>
  <rect x="210" y="166" width="760" height="420" rx="30" fill="#111111"/>
  <rect x="246" y="198" width="688" height="344" rx="8" fill="#FFFFFF"/>
  <rect x="246" y="198" width="688" height="46" rx="8" fill="#F9FAFD"/>
  <rect x="455" y="215" width="230" height="14" rx="7" fill="#E5E9F4"/>
  <circle cx="286" cy="222" r="6" fill="#D9DEEF"/>
  <rect x="310" y="305" width="290" height="10" rx="5" fill="#252A35"/>
  <rect x="310" y="334" width="350" height="10" rx="5" fill="#252A35"/>
  <rect x="310" y="363" width="245" height="10" rx="5" fill="#252A35"/>
  <rect x="310" y="414" width="320" height="10" rx="5" fill="#697184"/>
  <rect x="310" y="443" width="265" height="10" rx="5" fill="#697184"/>
  <rect x="756" y="244" width="178" height="298" fill="#F5F7FF"/>
  <text x="814" y="294" fill="#222733" font-family="Arial, sans-serif" font-size="24" font-weight="700">Study</text>
  <text x="794" y="326" fill="#222733" font-family="Arial, sans-serif" font-size="24" font-weight="700">Session</text>
  <circle cx="845" cy="400" r="54" fill="#DDE6FF"/>
  <path d="M814 400c13-33 58-36 72 0" stroke="#6284FF" stroke-width="8" stroke-linecap="round"/>
  <rect x="802" y="486" width="86" height="30" rx="6" fill="#5D74EF"/>
  <rect x="1098" y="178" width="226" height="192" rx="8" fill="#FFFFFF"/>
  <rect x="1128" y="214" width="108" height="12" rx="6" fill="#DDE6FF"/>
  <circle cx="1212" cy="284" r="58" stroke="#E8EAF4" stroke-width="12"/>
  <path d="M1212 226a58 58 0 0 1 58 58" stroke="#6384FF" stroke-width="12" stroke-linecap="round"/>
  <text x="1162" y="297" fill="#242936" font-family="Arial, sans-serif" font-size="42" font-weight="700">34:00</text>
  <rect x="1168" y="334" width="92" height="28" rx="6" fill="#5D74EF"/>
  <rect x="1098" y="418" width="226" height="122" rx="8" fill="#FFFFFF"/>
  <rect x="1128" y="450" width="108" height="12" rx="6" fill="#DDE6FF"/>
  <rect x="1128" y="480" width="18" height="18" rx="3" fill="#F8FAFF" stroke="#AAB2CA" stroke-width="2"/>
  <rect x="1158" y="484" width="118" height="10" rx="5" fill="#D8DEF4"/>
  <rect x="1128" y="512" width="18" height="18" rx="3" fill="#F8FAFF" stroke="#AAB2CA" stroke-width="2"/>
  <rect x="1158" y="516" width="136" height="10" rx="5" fill="#D8DEF4"/>
</svg>
